<?xml version="1.0" encoding="utf-8"?>
<!-- Generator: Adobe Illustrator 22.0.1, SVG Export Plug-In . SVG Version: 6.00 Build 0)  -->
<svg version="1.1" id="Capa_1" xmlns="http://www.w3.org/2000/svg" xmlns:xlink="http://www.w3.org/1999/xlink" x="0px" y="0px"
	 viewBox="0 0 178.9 157.5" style="enable-background:new 0 0 178.9 157.5;" xml:space="preserve">
<style type="text/css">
	.st0{fill:#FF524E;}
</style>
<g>
	<path class="st0" d="M147.5,56.8c-1.4,1.3-4.1,1.3-5.6,0l-0.5-0.4c-4.1-3.4-9.5-5.3-15.1-5.3c-5.9,0-11.5,2-15.7,5.8
		c-0.7,0.6-1.7,1-2.8,1c0,0,0,0,0,0c-1,0-1.9-0.3-2.7-0.9l-0.1-0.1c-8.6-7.6-22.7-7.6-31.3,0l-0.2,0.2c-0.7,0.6-1.5,1-2.6,0.8
		c0,0,0,0,0,0c-1,0-2-0.4-2.7-1C64,53,58.5,51,52.6,51c-4.9,0-9.8,1.5-13.6,4.2l-2,1.6c-1,0.9-2.2,1-2.8,1c0,0,0,0,0,0
		c-0.6,0-1.8-0.1-2.8-1c-3.4-3-8.9-3-12.3,0c-3.4,3-3.4,7.9,0,10.9c4,3.6,9.4,5.5,15.1,5.5c0,0,0,0,0,0c4.8,0,9.4-1.4,13.1-4l2-1.6
		c1.7-1.6,4.9-1.6,6.6,0c4,3.5,9.5,5.6,15,5.6c0.1,0,0.1,0,0.2,0c5.7,0,11-2,15.1-5.5l0.3-0.2c1.8-1.4,4.5-1.4,6.3,0.1l0.1,0.1
		c4,3.6,9.4,5.5,15.1,5.5c0,0,0,0,0,0c5.7,0,11.1-2,15.1-5.6c1.8-1.5,4.9-1.6,6.6,0l0.6,0.5c4,3.3,9.1,5.1,14.6,5.1
		c5.7,0,11.2-2,15.1-5.6c3.4-3,3.4-7.9-0.1-10.9C156.5,53.7,150.9,53.8,147.5,56.8z"/>
	<path class="st0" d="M26.3,108.2h126.4c8.5,0,15.4-6.1,15.4-13.6c0-7.5-6.9-13.6-15.4-13.6H26.3c-8.5,0-15.4,6.1-15.4,13.6
		C10.9,102.2,17.8,108.2,26.3,108.2z"/>
	<path class="st0" d="M162.8,120.4H15.9c-1.2,0-2.4,0.5-3.1,1.4c-0.7,0.9-0.8,2-0.4,3.1c4.9,11.2,14.9,20.8,28.1,27.7
		c3.8,2,8.1,3,12.5,3h72.4c4.4,0,8.7-1,12.5-3c13.2-6.9,23.2-16.6,28.1-27.7c0.4-1,0.3-2.2-0.4-3.1
		C165.1,120.9,164,120.4,162.8,120.4z"/>
	<path class="st0" d="M17.1,45h144.7c0.8,0,1.6-0.3,2-0.9c0.5-0.6,0.6-1.3,0.4-2c-8.1-23.1-38.5-40.2-74.8-40.2
		c-36.3,0-66.7,17.2-74.8,40.2c-0.2,0.7-0.1,1.4,0.4,2C15.5,44.7,16.3,45,17.1,45z M133.5,17.8c2.4,0,4.4,1.8,4.4,3.9
		s-2,3.9-4.4,3.9c-2.4,0-4.4-1.8-4.4-3.9S131.1,17.8,133.5,17.8z M107.3,26.3c2.6,0,4.8,1.9,4.8,4.2c0,2.3-2.1,4.2-4.8,4.2
		c-2.6,0-4.8-1.9-4.8-4.2C102.6,28.2,104.7,26.3,107.3,26.3z M82,10.8c2.4,0,4.4,1.8,4.4,3.9s-2,3.9-4.4,3.9c-2.4,0-4.4-1.8-4.4-3.9
		S79.6,10.8,82,10.8z M50.7,17.8c3.3,0,6.1,2.4,6.1,5.4c0,3-2.7,5.4-6.1,5.4c-3.4,0-6.1-2.4-6.1-5.4C44.6,20.2,47.3,17.8,50.7,17.8z
		"/>
</g>
</svg>
